<svg xmlns="http://www.w3.org/2000/svg" viewBox="0 0 1200 600" role="img" aria-label="">
  <defs>
    <linearGradient id="bg" x1="0" y1="0" x2="1" y2="1">
      <stop offset="0" stop-color="#241a44"/>
      <stop offset="0.55" stop-color="#3a1d3f"/>
      <stop offset="1" stop-color="#3d2a12"/>
    </linearGradient>
    <linearGradient id="accent" x1="0" y1="0" x2="1" y2="0">
      <stop offset="0" stop-color="#8b5cf6"/>
      <stop offset="0.5" stop-color="#d946ef"/>
      <stop offset="1" stop-color="#f59e0b"/>
    </linearGradient>
  </defs>
  <rect width="1200" height="600" fill="url(#bg)"/>
  <!-- blueprint grid: spec-first, drawn before the build -->
  <g stroke="#d946ef" stroke-width="1" opacity="0.12">
    <path d="M150 0V600 M300 0V600 M450 0V600 M600 0V600 M750 0V600 M900 0V600 M1050 0V600"/>
    <path d="M0 150H1200 M0 300H1200 M0 450H1200"/>
  </g>
  <!-- stacked plan → build bars -->
  <g opacity="0.9">
    <rect x="170" y="250" width="300" height="22" rx="11" fill="url(#accent)" opacity="0.85"/>
    <rect x="170" y="296" width="220" height="22" rx="11" fill="#d946ef" opacity="0.5"/>
    <rect x="170" y="342" width="260" height="22" rx="11" fill="#8b5cf6" opacity="0.5"/>
  </g>
  <circle cx="960" cy="170" r="90" fill="#d946ef" opacity="0.18"/>
  <circle cx="1010" cy="430" r="120" fill="#f59e0b" opacity="0.12"/>
</svg>
